<?xml version="1.0" encoding="UTF-8" standalone="no"?>
<!-- Created with Inkscape (http://www.inkscape.org/) -->

<svg
   xmlns:dc="http://purl.org/dc/elements/1.1/"
   xmlns:cc="http://creativecommons.org/ns#"
   xmlns:rdf="http://www.w3.org/1999/02/22-rdf-syntax-ns#"
   xmlns:svg="http://www.w3.org/2000/svg"
   xmlns="http://www.w3.org/2000/svg"
   xmlns:sodipodi="http://sodipodi.sourceforge.net/DTD/sodipodi-0.dtd"
   xmlns:inkscape="http://www.inkscape.org/namespaces/inkscape"
   version="1.1"
   id="svg29"
   xml:space="preserve"
   width="416.50748"
   height="389.53305"
   viewBox="0 0 416.50748 389.53305"
   sodipodi:docname="CacheBlockDiagram.svg"
   inkscape:version="0.92.3 (2405546, 2018-03-11)"><metadata
     id="metadata35"><rdf:RDF><cc:Work
         rdf:about=""><dc:format>image/svg+xml</dc:format><dc:type
           rdf:resource="http://purl.org/dc/dcmitype/StillImage" /><dc:title></dc:title></cc:Work></rdf:RDF></metadata><defs
     id="defs33" /><sodipodi:namedview
     pagecolor="#ffffff"
     bordercolor="#666666"
     borderopacity="1"
     objecttolerance="10"
     gridtolerance="10"
     guidetolerance="10"
     inkscape:pageopacity="0"
     inkscape:pageshadow="2"
     inkscape:window-width="1920"
     inkscape:window-height="1046"
     id="namedview31"
     showgrid="false"
     inkscape:zoom="2.2154731"
     inkscape:cx="208.25374"
     inkscape:cy="194.76653"
     inkscape:window-x="0"
     inkscape:window-y="34"
     inkscape:window-maximized="1"
     inkscape:current-layer="g37" /><g
     id="g37"
     inkscape:groupmode="layer"
     inkscape:label="CacheBlockDiagram"
     transform="matrix(1.3333333,0,0,1.3333333,0,9.7383259e-6)"><g
       id="g39"><path
         d="m 124.207,215.348 c 0,-12.313 -10,-22.313 -22.312,-22.313 -12.321,0 -22.321,10 -22.321,22.313 0,12.32 10,22.32 22.321,22.32 12.312,0 22.312,-10 22.312,-22.32"
         style="fill:#ffffff;fill-opacity:1;fill-rule:evenodd;stroke:none"
         id="path41"
         inkscape:connector-curvature="0" /><g
         id="g43"><path
           d="m 124.207,215.348 c 0,-12.313 -10,-22.313 -22.312,-22.313 -12.321,0 -22.321,10 -22.321,22.313 0,12.32 10,22.32 22.321,22.32 12.312,0 22.312,-10 22.312,-22.32 z"
           style="fill:none;stroke:#000000;stroke-width:0.70999998;stroke-linecap:butt;stroke-linejoin:miter;stroke-miterlimit:10;stroke-dasharray:none;stroke-opacity:1"
           id="path45"
           inkscape:connector-curvature="0" /></g><g
         id="g47"><path
           d="M 21.598,23.477 H 66.215 V 36.863 H 21.598 Z m 44.617,0 h 44.633 V 36.863 H 66.215 Z m 44.633,0 h 8.922 v 13.386 h -8.922 z"
           style="fill:none;stroke:#000000;stroke-width:1.42999995;stroke-linecap:butt;stroke-linejoin:miter;stroke-miterlimit:10;stroke-dasharray:none;stroke-opacity:1"
           id="path49"
           inkscape:connector-curvature="0" /></g><text
         transform="translate(89.638191,218.18772)"
         style="font-variant:normal;font-weight:normal;font-size:8px;font-family:'DejaVu Sans';-inkscape-font-specification:DejaVuSans;writing-mode:lr-tb;fill:#000000;fill-opacity:1;fill-rule:nonzero;stroke:none"
         id="text61"><tspan
           x="0 6.8000002 11.24 13.16 16.688 20.864"
           y="0"
           sodipodi:role="line"
           id="tspan51">Match?</tspan><tspan
           x="-56.8904 -52.714401 -50.690399 -46.250401 -42.074402 -38.170399 -10.3464 -8.5704002 -4.2584 1.4776 5.3815999"
           y="-185.3096"
           sodipodi:role="line"
           id="tspan53">higherlower</tspan><tspan
           x="20.9496 25.389601 29.253599 31.173599 35.077599 39.077599 44.813599 46.837601 48.757599 52.941601 54.965599 59.141602 63.141602 64.909599 66.933601 71.109596"
           y="-212.1096"
           sodipodi:role="line"
           id="tspan55">byte–within–line</tspan><tspan
           x="20.929604 25.369604 29.809603 34.257603 37.065605 40.961605 44.025604"
           y="-202.5896"
           sodipodi:role="line"
           id="tspan57">address</tspan><tspan
           x="-68.040794 -61.240795 -57.336796 -51.200798 -46.888798 -44.080795 -40.216797 -37.912796 -33.472797 -29.024797 -24.584797 -21.776796 -17.872797 -14.808797"
           y="-200.9296"
           sodipodi:role="line"
           id="tspan59">Memory address</tspan></text>
<g
         id="g63"><path
           d="m 155.477,31.844 h 156.188 v 151.73 H 155.477 Z"
           style="fill:none;stroke:#000000;stroke-width:1.42999995;stroke-linecap:butt;stroke-linejoin:miter;stroke-miterlimit:10;stroke-dasharray:none;stroke-opacity:1"
           id="path65"
           inkscape:connector-curvature="0" /></g><g
         id="g67"><path
           d="M 155.477,80.938 H 311.664 M 155.477,98.785 h 156.187"
           style="fill:none;stroke:#000000;stroke-width:1.42999995;stroke-linecap:butt;stroke-linejoin:miter;stroke-miterlimit:10;stroke-dasharray:8.604, 2.868;stroke-dashoffset:0;stroke-opacity:1"
           id="path69"
           inkscape:connector-curvature="0" /></g><text
         transform="translate(173.32819,92.567825)"
         style="font-variant:normal;font-weight:normal;font-size:8px;font-family:'DejaVu Sans';-inkscape-font-specification:DejaVuSans;writing-mode:lr-tb;fill:#000000;fill-opacity:1;fill-rule:nonzero;stroke:none"
         id="text75"><tspan
           x="0 3.6400001 8.0799999"
           y="0"
           sodipodi:role="line"
           id="tspan71">Tag</tspan><tspan
           x="-62.759998 -60.911999 -56.736 -52.287998 -48.391998"
           y="-6.7007999"
           sodipodi:role="line"
           id="tspan73">Index</tspan></text>
<g
         id="g77"><path
           d="m 101.906,237.668 v 41.219"
           style="fill:none;stroke:#000000;stroke-width:1.42999995;stroke-linecap:butt;stroke-linejoin:miter;stroke-miterlimit:10;stroke-dasharray:none;stroke-opacity:1"
           id="path79"
           inkscape:connector-curvature="0" /></g><path
         d="m 104.324,275.055 -2.41,8.82 -2.394,-8.82"
         style="fill:#000000;fill-opacity:1;fill-rule:evenodd;stroke:none"
         id="path81"
         inkscape:connector-curvature="0" /><g
         id="g83"><path
           d="M 79.52,215.336 H 44.746"
           style="fill:none;stroke:#000000;stroke-width:1.42999995;stroke-linecap:butt;stroke-linejoin:miter;stroke-miterlimit:10;stroke-dasharray:none;stroke-opacity:1"
           id="path85"
           inkscape:connector-curvature="0" /></g><path
         d="m 48.566,217.762 -8.808,-2.414 8.808,-2.403"
         style="fill:#000000;fill-opacity:1;fill-rule:evenodd;stroke:none"
         id="path87"
         inkscape:connector-curvature="0" /><g
         id="g89"><path
           d="m 90.77,246.605 h 22.309 v 13.391 H 90.77 Z"
           style="fill:#ffffff;fill-opacity:1;fill-rule:nonzero;stroke:#000000;stroke-width:0.70999998;stroke-linecap:butt;stroke-linejoin:miter;stroke-miterlimit:10;stroke-dasharray:none;stroke-opacity:1"
           id="path91"
           inkscape:connector-curvature="0" /></g><text
         transform="translate(95.50819,256.00772)"
         style="font-variant:normal;font-weight:normal;font-size:8px;font-family:'DejaVu Sans';-inkscape-font-specification:DejaVuSans;writing-mode:lr-tb;fill:#000000;fill-opacity:1;fill-rule:nonzero;stroke:none"
         id="text103"><tspan
           x="0 4.5760002 8.4799995"
           y="0"
           sodipodi:role="line"
           id="tspan93">Yes</tspan><tspan
           x="2.2304001 6.4064002 8.4303999 42.102402 46.5504 50.990398 52.9104 57.350399 59.6544 61.574402 65.886398 68.190399 72.278397 75.3424"
           y="36.028801"
           sodipodi:role="line"
           id="tspan95">hitdata to use</tspan><tspan
           x="-95.9496 -92.429604 -87.989601 -84.461601 -80.285599 -76.381599 -74.077599 -67.941597 -65.917603 -62.8536 -59.7896"
           y="-48.5312"
           sodipodi:role="line"
           id="tspan97">cache miss,</tspan><tspan
           x="-95.9496 -93.141602 -89.237602 -87.037598 -85.013603 -83.245598 -81.4776 -79.173599 -76.973602 -74.165604 -69.8536"
           y="-39.0312"
           sodipodi:role="line"
           id="tspan99">refill from</tspan><tspan
           x="-95.9496 -89.813599 -85.909599 -79.773598 -75.461601 -72.653603"
           y="-29.5312"
           sodipodi:role="line"
           id="tspan101">memory</tspan></text>
<g
         id="g105"><path
           d="m 52.824,208.656 h 22.32 v 13.395 h -22.32 z"
           style="fill:#ffffff;fill-opacity:1;fill-rule:nonzero;stroke:#000000;stroke-width:0.70999998;stroke-linecap:butt;stroke-linejoin:miter;stroke-miterlimit:10;stroke-dasharray:none;stroke-opacity:1"
           id="path107"
           inkscape:connector-curvature="0" /></g><text
         transform="translate(59.248191,218.05672)"
         style="font-variant:normal;font-weight:normal;font-size:8px;font-family:'DejaVu Sans';-inkscape-font-specification:DejaVuSans;writing-mode:lr-tb;fill:#000000;fill-opacity:1;fill-rule:nonzero;stroke:none"
         id="text111"><tspan
           x="0 6.2800002"
           y="0"
           sodipodi:role="line"
           id="tspan109">No</tspan></text>
<path
         d="m 153.574,144.027 -2.758,-1.89 6,-8.742 2.758,1.89 -6,8.742"
         style="fill:#ffffff;fill-opacity:1;fill-rule:evenodd;stroke:none"
         id="path113"
         inkscape:connector-curvature="0" /><path
         d="m 202.008,189.676 -1.942,-1.399 14.09,-19.57 1.942,1.398 -14.09,19.571"
         style="fill:#ffffff;fill-opacity:1;fill-rule:evenodd;stroke:none"
         id="path115"
         inkscape:connector-curvature="0" /><g
         id="g117"><path
           d="M 43.906,36.863 91.547,191.688"
           style="fill:none;stroke:#000000;stroke-width:1.42999995;stroke-linecap:butt;stroke-linejoin:miter;stroke-miterlimit:10;stroke-dasharray:none;stroke-opacity:1"
           id="path119"
           inkscape:connector-curvature="0" /></g><path
         d="m 92.246,185.957 0.289,9.129 -4.89,-7.719"
         style="fill:#000000;fill-opacity:1;fill-rule:evenodd;stroke:none"
         id="path121"
         inkscape:connector-curvature="0" /><g
         id="g123"><path
           d="M 182.707,98.551 117.27,194.625"
           style="fill:none;stroke:#000000;stroke-width:1.42999995;stroke-linecap:butt;stroke-linejoin:miter;stroke-miterlimit:10;stroke-dasharray:none;stroke-opacity:1"
           id="path125"
           inkscape:connector-curvature="0" /></g><path
         d="m 122.246,191.574 -6.941,5.942 2.965,-8.641"
         style="fill:#000000;fill-opacity:1;fill-rule:evenodd;stroke:none"
         id="path127"
         inkscape:connector-curvature="0" /><path
         d="m 146.727,87.836 8.75,2.633 -8.879,2.176"
         style="fill:#000000;fill-opacity:1;fill-rule:evenodd;stroke:none"
         id="path129"
         inkscape:connector-curvature="0" /><g
         id="g131"><path
           d="m 234.688,81.484 v 17.082 m -26.833,82.739 v 2.269 m 0,-151.73 v 149.461"
           style="fill:none;stroke:#000000;stroke-width:1.42999995;stroke-linecap:butt;stroke-linejoin:miter;stroke-miterlimit:10;stroke-dasharray:8.604, 2.868;stroke-dashoffset:0;stroke-opacity:1"
           id="path133"
           inkscape:connector-curvature="0" /></g><g
         id="g135"><path
           d="M 271.945,98.566 155.477,246.055 v 34.582"
           style="fill:none;stroke:#000000;stroke-width:1.42999995;stroke-linecap:butt;stroke-linejoin:miter;stroke-miterlimit:10;stroke-dasharray:none;stroke-opacity:1"
           id="path137"
           inkscape:connector-curvature="0" /></g><path
         d="m 157.875,273.945 -2.398,8.817 -2.411,-8.817"
         style="fill:#000000;fill-opacity:1;fill-rule:evenodd;stroke:none"
         id="path139"
         inkscape:connector-curvature="0" /><text
         transform="translate(265.29819,92.197725)"
         style="font-variant:normal;font-weight:normal;font-size:8px;font-family:'DejaVu Sans';-inkscape-font-specification:DejaVuSans;writing-mode:lr-tb;fill:#000000;fill-opacity:1;fill-rule:nonzero;stroke:none"
         id="text143"><tspan
           x="0 5.3200002 9.7600002 11.68"
           y="0"
           sodipodi:role="line"
           id="tspan141">Data</tspan></text>
<g
         id="g145"><path
           d="m 88.535,36.863 v 53.555 h 64.211 M 115.305,36.863 v 13.399 h 156.191 v 28.933"
           style="fill:none;stroke:#000000;stroke-width:1.42999995;stroke-linecap:butt;stroke-linejoin:miter;stroke-miterlimit:10;stroke-dasharray:none;stroke-opacity:1"
           id="path147"
           inkscape:connector-curvature="0" /></g><path
         d="m 273.906,72.512 -2.41,8.812 -2.398,-8.812"
         style="fill:#000000;fill-opacity:1;fill-rule:evenodd;stroke:none"
         id="path149"
         inkscape:connector-curvature="0" /><text
         transform="translate(217.67819,45.707826)"
         style="font-variant:normal;font-weight:normal;font-size:8px;font-family:'DejaVu Sans';-inkscape-font-specification:DejaVuSans;writing-mode:lr-tb;fill:#000000;fill-opacity:1;fill-rule:nonzero;stroke:none"
         id="text153"><tspan
           x="0 4.2880001 8.1920004 9.96 13.864 17.384001 19.304001 23.615999"
           y="0"
           sodipodi:role="line"
           id="tspan151">Selector</tspan></text>
<g
         id="g155"><path
           d="M 119.77,23.477 161.645,7.387"
           style="fill:none;stroke:#000000;stroke-width:1.42999995;stroke-linecap:butt;stroke-linejoin:miter;stroke-miterlimit:10;stroke-dasharray:8.604, 2.868;stroke-dashoffset:0;stroke-opacity:1"
           id="path157"
           inkscape:connector-curvature="0" /></g><g
         id="g159"><path
           d="M 110.848,23.477 V 16.094"
           style="fill:none;stroke:#000000;stroke-width:1.42999995;stroke-linecap:butt;stroke-linejoin:miter;stroke-miterlimit:10;stroke-dasharray:3, 1;stroke-dashoffset:0;stroke-opacity:1"
           id="path161"
           inkscape:connector-curvature="0" /></g></g></g></svg>