<?xml version="1.0" encoding="UTF-8" standalone="no"?>
<!-- Created with Inkscape (http://www.inkscape.org/) -->

<svg
   xmlns:dc="http://purl.org/dc/elements/1.1/"
   xmlns:cc="http://creativecommons.org/ns#"
   xmlns:rdf="http://www.w3.org/1999/02/22-rdf-syntax-ns#"
   xmlns:svg="http://www.w3.org/2000/svg"
   xmlns="http://www.w3.org/2000/svg"
   xmlns:sodipodi="http://sodipodi.sourceforge.net/DTD/sodipodi-0.dtd"
   xmlns:inkscape="http://www.inkscape.org/namespaces/inkscape"
   version="1.1"
   id="svg268"
   xml:space="preserve"
   width="417.42667"
   height="308.62225"
   viewBox="0 0 417.42667 308.62227"
   sodipodi:docname="twoWayassociativeCache.svg"
   inkscape:version="0.92.3 (2405546, 2018-03-11)"><metadata
     id="metadata274"><rdf:RDF><cc:Work
         rdf:about=""><dc:format>image/svg+xml</dc:format><dc:type
           rdf:resource="http://purl.org/dc/dcmitype/StillImage" /><dc:title></dc:title></cc:Work></rdf:RDF></metadata><defs
     id="defs272" /><sodipodi:namedview
     pagecolor="#ffffff"
     bordercolor="#666666"
     borderopacity="1"
     objecttolerance="10"
     gridtolerance="10"
     guidetolerance="10"
     inkscape:pageopacity="0"
     inkscape:pageshadow="2"
     inkscape:window-width="1920"
     inkscape:window-height="1046"
     id="namedview270"
     showgrid="false"
     fit-margin-top="0"
     fit-margin-left="0"
     fit-margin-right="0"
     fit-margin-bottom="0"
     inkscape:zoom="2.3786089"
     inkscape:cx="201.58305"
     inkscape:cy="154.96166"
     inkscape:window-x="0"
     inkscape:window-y="34"
     inkscape:window-maximized="1"
     inkscape:current-layer="g276" /><g
     id="g276"
     inkscape:groupmode="layer"
     inkscape:label="See.MIPS.Run.2nd.Edition.en"
     transform="matrix(1.3333333,0,0,1.3333333,-250.77636,-223.40665)"><g
       id="g278"
       transform="translate(14.504277)"><path
         d="m 211.887,283.812 37.133,40.833"
         style="fill:none;stroke:#000000;stroke-width:1.41999996;stroke-linecap:butt;stroke-linejoin:miter;stroke-miterlimit:10;stroke-dasharray:none;stroke-opacity:1"
         id="path292"
         inkscape:connector-curvature="0" /><path
         d="m 246.559,324.992 6.789,4.281 -3.75,-7.101 -3.039,2.82"
         style="fill:#000000;fill-opacity:1;fill-rule:nonzero;stroke:none"
         id="path294"
         inkscape:connector-curvature="0" /><path
         d="m 253.539,266.234 62.809,-39.89"
         style="fill:none;stroke:#000000;stroke-width:1.41999996;stroke-linecap:butt;stroke-linejoin:miter;stroke-miterlimit:10;stroke-dasharray:none;stroke-opacity:1"
         id="path296"
         inkscape:connector-curvature="0" /><path
         d="m 316.258,228.832 5.41,-5.922 -7.648,2.434 2.238,3.488"
         style="fill:#000000;fill-opacity:1;fill-rule:nonzero;stroke:none"
         id="path298"
         inkscape:connector-curvature="0" /><path
         d="m 252.508,283.812 63.32,41.622"
         style="fill:none;stroke:#000000;stroke-width:1.41999996;stroke-linecap:butt;stroke-linejoin:miter;stroke-miterlimit:10;stroke-dasharray:none;stroke-opacity:1"
         id="path300"
         inkscape:connector-curvature="0" /><path
         d="m 313.52,326.371 7.617,2.524 -5.34,-5.993 -2.277,3.469"
         style="fill:#000000;fill-opacity:1;fill-rule:nonzero;stroke:none"
         id="path302"
         inkscape:connector-curvature="0" /><text
         transform="translate(417.28859,278.52298)"
         style="font-variant:normal;font-size:9px;font-family:xFutura-0-1000;-inkscape-font-specification:xFutura-0-1000-48;writing-mode:lr-tb;fill:#231f20;fill-opacity:1;fill-rule:nonzero;stroke:none"
         id="text312"><tspan
           x="0 5.9489999 10.953 14.922 19.629 24.021 26.622 33.525002 37.917 44.82 49.68 53.199001 57.555 60.155998"
           y="0"
           sodipodi:role="line"
           id="tspan304">Cache memory A</tspan><tspan
           x="-85.130997 -81.927002 -76.922997 -71.928001 -68.472 -66.311996 -61.452 -58.292999"
           y="-88.149597"
           sodipodi:role="line"
           id="tspan306">Tagstore</tspan><tspan
           x="1.089 7.0380001 12.042 16.011 20.718 25.110001 27.711 34.613998 39.006001 45.909 50.769001 54.287998 58.644001 61.244999"
           y="111.4704"
           sodipodi:role="line"
           id="tspan308">Cache memory B</tspan><tspan
           x="-19.601101 -13.6521 -8.6480999 -4.6791 0.027899999 4.4198999 7.0208998 12.0249 17.0289 19.1889 24.1929 26.7939 30.249901 32.409901 37.269901 40.428902"
           y="-88.149597"
           sodipodi:role="line"
           id="tspan310">Cache data store</tspan></text>
<path
         d="m 321.668,194.492 h 164.27 v 73.648 h -164.27 z"
         style="fill:none;stroke:#231f20;stroke-width:1.41999996;stroke-linecap:butt;stroke-linejoin:miter;stroke-miterlimit:10;stroke-dasharray:none;stroke-opacity:1"
         id="path314"
         inkscape:connector-curvature="0" /><path
         d="m 373.867,194.273 v 73.309"
         style="fill:none;stroke:#231f20;stroke-width:1.41999996;stroke-linecap:butt;stroke-linejoin:miter;stroke-miterlimit:10;stroke-dasharray:1.35, 1.35;stroke-dashoffset:0;stroke-opacity:1"
         id="path316"
         inkscape:connector-curvature="0" /><path
         d="m 321.668,300.453 h 164.27 v 78.988 h -164.27 z"
         style="fill:none;stroke:#231f20;stroke-width:1.41999996;stroke-linecap:butt;stroke-linejoin:miter;stroke-miterlimit:10;stroke-dasharray:none;stroke-opacity:1"
         id="path318"
         inkscape:connector-curvature="0" /><text
         transform="translate(332.15859,296.50188)"
         style="font-variant:normal;font-size:9px;font-family:xFutura-0-1000;-inkscape-font-specification:xFutura-0-1000-48;writing-mode:lr-tb;fill:#231f20;fill-opacity:1;fill-rule:nonzero;stroke:none"
         id="text322"><tspan
           x="0 3.204 8.2080002 13.203 16.659 18.819 23.679001 26.837999 65.538002 71.487 76.490997 80.459999 85.167 89.558998 92.160004 97.164001 102.168 104.328 109.332 111.933 115.389 117.549 122.409 125.568"
           y="0"
           sodipodi:role="line"
           id="tspan320">TagstoreCache data store</tspan></text>
<path
         d="m 258.207,342.172 v 26.34"
         style="fill:none;stroke:#000000;stroke-width:1.41999996;stroke-linecap:butt;stroke-linejoin:miter;stroke-miterlimit:10;stroke-dasharray:none;stroke-opacity:1"
         id="path324"
         inkscape:connector-curvature="0" /><path
         d="m 256.156,367.094 2.082,7.75 2.071,-7.75 h -4.153"
         style="fill:#000000;fill-opacity:1;fill-rule:nonzero;stroke:none"
         id="path326"
         inkscape:connector-curvature="0" /><path
         d="m 281.547,342.172 c 0,-7.25 -10.527,-13.16 -23.481,-13.16 -12.957,0 -23.488,5.91 -23.488,13.16 0,7.262 10.531,13.172 23.488,13.172 12.954,0 23.481,-5.91 23.481,-13.172"
         style="fill:#ffffff;fill-opacity:1;fill-rule:nonzero;stroke:none"
         id="path328"
         inkscape:connector-curvature="0" /><path
         d="m 281.547,342.172 c 0,-7.25 -10.527,-13.16 -23.481,-13.16 -12.957,0 -23.488,5.91 -23.488,13.16 0,7.262 10.531,13.172 23.488,13.172 12.954,0 23.481,-5.91 23.481,-13.172 z"
         style="fill:none;stroke:#231f20;stroke-width:0.72000003;stroke-linecap:butt;stroke-linejoin:miter;stroke-miterlimit:3.86400008;stroke-dasharray:none;stroke-opacity:1"
         id="path330"
         inkscape:connector-curvature="0" /><text
         transform="translate(243.94859,346.44188)"
         style="font-variant:normal;font-size:9px;font-family:xFutura-0-1000;-inkscape-font-specification:xFutura-0-1000-48;writing-mode:lr-tb;fill:#231f20;fill-opacity:1;fill-rule:nonzero;stroke:none"
         id="text334"><tspan
           x="0 7.6589999 12.663 14.823 18.792 23.499001"
           y="0"
           sodipodi:role="line"
           id="tspan332">Match?</tspan></text>
<path
         d="M 258.547,208.711 V 182.383"
         style="fill:none;stroke:#000000;stroke-width:1.41999996;stroke-linecap:butt;stroke-linejoin:miter;stroke-miterlimit:10;stroke-dasharray:none;stroke-opacity:1"
         id="path336"
         inkscape:connector-curvature="0" /><path
         d="m 260.598,183.793 -2.071,-7.75 -2.078,7.75 h 4.149"
         style="fill:#000000;fill-opacity:1;fill-rule:nonzero;stroke:none"
         id="path338"
         inkscape:connector-curvature="0" /><path
         d="m 282.008,205.383 c 0,7.308 -10.469,13.172 -23.43,13.172 -13.012,0 -23.48,-5.864 -23.48,-13.172 0,-7.262 10.468,-13.172 23.48,-13.172 12.961,0 23.43,5.91 23.43,13.172"
         style="fill:#ffffff;fill-opacity:1;fill-rule:nonzero;stroke:none"
         id="path340"
         inkscape:connector-curvature="0" /><path
         d="m 282.008,205.383 c 0,7.308 -10.469,13.172 -23.43,13.172 -13.012,0 -23.48,-5.864 -23.48,-13.172 0,-7.262 10.468,-13.172 23.48,-13.172 12.961,0 23.43,5.91 23.43,13.172 z"
         style="fill:none;stroke:#231f20;stroke-width:0.72000003;stroke-linecap:butt;stroke-linejoin:miter;stroke-miterlimit:3.86400008;stroke-dasharray:none;stroke-opacity:1"
         id="path342"
         inkscape:connector-curvature="0" /><text
         transform="translate(244.91859,208.77288)"
         style="font-variant:normal;font-size:9px;font-family:xFutura-0-1000;-inkscape-font-specification:xFutura-0-1000-48;writing-mode:lr-tb;fill:#231f20;fill-opacity:1;fill-rule:nonzero;stroke:none"
         id="text350"><tspan
           x="0 7.6589999 12.663 14.823 18.792 23.499001"
           y="0"
           sodipodi:role="line"
           id="tspan344">Match?</tspan><tspan
           x="-1.4400001 3.3929999 7.7849998 9.783 14.175 18.143999 20.304001 22.905001"
           y="-34.380001"
           sodipodi:role="line"
           id="tspan346">Select A</tspan><tspan
           x="-1.1601 3.6729 8.0649004 10.0629 14.4549 18.423901 20.5839 23.1849"
           y="172.0287"
           sodipodi:role="line"
           id="tspan348">Select B</tspan></text>
<path
         d="m 173.938,266.234 h 98.242 v 17.578 h -98.242 z"
         style="fill:#ffffff;fill-opacity:1;fill-rule:nonzero;stroke:none"
         id="path352"
         inkscape:connector-curvature="0" /><path
         d="m 173.938,266.234 h 98.242 v 17.578 h -98.242 z"
         style="fill:none;stroke:#231f20;stroke-width:0.72000003;stroke-linecap:butt;stroke-linejoin:miter;stroke-miterlimit:3.86400008;stroke-dasharray:none;stroke-opacity:1"
         id="path354"
         inkscape:connector-curvature="0" /><text
         transform="translate(236.89859,278.52298)"
         style="font-variant:normal;font-size:9px;font-family:xFutura-0-1000;-inkscape-font-specification:xFutura-0-1000-48;writing-mode:lr-tb;fill:#231f20;fill-opacity:1;fill-rule:nonzero;stroke:none"
         id="text360"><tspan
           x="0 3.4649999 8.3249998 14.787 17.388 22.392 24.677999 26.837999 -55.206001 -49.131001 -46.845001 -41.849998 -37.143002 -32.750999 -29.591999 -26.990999 -21.987 -19.701 -17.541"
           y="0"
           sodipodi:role="line"
           id="tspan356">Low bitsHigher bits</tspan><tspan
           x="171.7704 178.0974 181.0854 183.0834 185.3694 190.0764 194.4684 197.0694 202.07339 207.07739 209.2374"
           y="-51.389999"
           sodipodi:role="line"
           id="tspan358">A-line data</tspan></text>
<path
         d="m 211.617,266.293 36.719,-43.371"
         style="fill:none;stroke:#000000;stroke-width:1.41999996;stroke-linecap:butt;stroke-linejoin:miter;stroke-miterlimit:10;stroke-dasharray:none;stroke-opacity:1"
         id="path362"
         inkscape:connector-curvature="0" /><path
         d="m 248.977,225.332 3.461,-7.23 -6.622,4.531 3.161,2.699"
         style="fill:#000000;fill-opacity:1;fill-rule:nonzero;stroke:none"
         id="path364"
         inkscape:connector-curvature="0" /><path
         d="M 346.859,216.594 288.02,205.012"
         style="fill:none;stroke:#000000;stroke-width:1.41999996;stroke-linecap:butt;stroke-linejoin:miter;stroke-miterlimit:10;stroke-dasharray:none;stroke-opacity:1"
         id="path366"
         inkscape:connector-curvature="0" /><path
         d="m 289.828,203.301 -8.012,0.402 7.141,3.668 0.871,-4.07"
         style="fill:#000000;fill-opacity:1;fill-rule:nonzero;stroke:none"
         id="path368"
         inkscape:connector-curvature="0" /><path
         d="m 344.207,336.074 -56.48,6.66"
         style="fill:none;stroke:#000000;stroke-width:1.41999996;stroke-linecap:butt;stroke-linejoin:miter;stroke-miterlimit:10;stroke-dasharray:none;stroke-opacity:1"
         id="path370"
         inkscape:connector-curvature="0" /><path
         d="m 288.887,340.523 -7.449,3 7.949,1.129 -0.5,-4.129"
         style="fill:#000000;fill-opacity:1;fill-rule:nonzero;stroke:none"
         id="path372"
         inkscape:connector-curvature="0" /><path
         d="m 232.539,266.172 v 17.723"
         style="fill:none;stroke:#231f20;stroke-width:1.41999996;stroke-linecap:butt;stroke-linejoin:miter;stroke-miterlimit:10;stroke-dasharray:1.35, 1.35;stroke-dashoffset:0;stroke-opacity:1"
         id="path374"
         inkscape:connector-curvature="0" /><path
         d="m 372.656,215.461 h 2.633 v 2.371 h -2.633 z"
         style="fill:#ffffff;fill-opacity:1;fill-rule:nonzero;stroke:none"
         id="path376"
         inkscape:connector-curvature="0" /><path
         d="M 321.938,216.555 H 485.539"
         style="fill:none;stroke:#231f20;stroke-width:1.41999996;stroke-linecap:butt;stroke-linejoin:miter;stroke-miterlimit:10;stroke-dasharray:1.35, 1.35;stroke-dashoffset:0;stroke-opacity:1"
         id="path378"
         inkscape:connector-curvature="0" /><path
         d="m 372.469,228.863 h 2.629 v 2.379 h -2.629 z"
         style="fill:#ffffff;fill-opacity:1;fill-rule:nonzero;stroke:none"
         id="path380"
         inkscape:connector-curvature="0" /><path
         d="m 321.789,229.98 h 163.598 m -111.52,70.372 v 79.089"
         style="fill:none;stroke:#231f20;stroke-width:1.41999996;stroke-linecap:butt;stroke-linejoin:miter;stroke-miterlimit:10;stroke-dasharray:1.35, 1.35;stroke-dashoffset:0;stroke-opacity:1"
         id="path382"
         inkscape:connector-curvature="0" /><path
         d="m 372.656,321.543 h 2.633 v 2.379 h -2.633 z"
         style="fill:#ffffff;fill-opacity:1;fill-rule:nonzero;stroke:none"
         id="path384"
         inkscape:connector-curvature="0" /><path
         d="M 321.938,322.645 H 486.039"
         style="fill:none;stroke:#231f20;stroke-width:1.41999996;stroke-linecap:butt;stroke-linejoin:miter;stroke-miterlimit:10;stroke-dasharray:1.35, 1.35;stroke-dashoffset:0;stroke-opacity:1"
         id="path386"
         inkscape:connector-curvature="0" /><path
         d="m 372.469,334.953 h 2.629 v 2.371 h -2.629 z"
         style="fill:#ffffff;fill-opacity:1;fill-rule:nonzero;stroke:none"
         id="path388"
         inkscape:connector-curvature="0" /><path
         d="M 321.789,336.074 H 485.898"
         style="fill:none;stroke:#231f20;stroke-width:1.41999996;stroke-linecap:butt;stroke-linejoin:miter;stroke-miterlimit:10;stroke-dasharray:1.35, 1.35;stroke-dashoffset:0;stroke-opacity:1"
         id="path390"
         inkscape:connector-curvature="0" /><text
         transform="translate(409.42859,333.13288)"
         style="font-variant:normal;font-size:9px;font-family:xFutura-0-1000;-inkscape-font-specification:xFutura-0-1000-48;writing-mode:lr-tb;fill:#231f20;fill-opacity:1;fill-rule:nonzero;stroke:none"
         id="text394"><tspan
           x="0 4.8150001 7.803 9.8009996 12.087 16.794001 21.186001 23.787001 28.791 33.794998 35.955002"
           y="0"
           sodipodi:role="line"
           id="tspan392">B-line data</tspan></text>
<text
         style="font-variant:normal;font-size:8.97000027px;font-family:Minion-Bold-0-1000;-inkscape-font-specification:Minion-Bold-0-1000-22;writing-mode:lr-tb;fill:#000000;fill-opacity:1;fill-rule:nonzero;stroke:none"
         id="text400"
         x="176.25859"
         y="397.31351"><tspan
           x="176.25859 181.07549 184.32262 190.62852 197.07796 202.74699 209.58214 213.97743 216.17509"
           y="397.31351"
           sodipodi:role="line"
           id="tspan398">FIGURE4.2</tspan></text>
<text
         style="font-variant:normal;font-size:8.97000027px;font-family:Minion-Regular-0-1000;-inkscape-font-specification:Minion-Regular-0-1000-20;writing-mode:lr-tb;fill:#000000;fill-opacity:1;fill-rule:nonzero;stroke:none"
         id="text404"
         x="226.36882"
         y="397.15585"><tspan
           x="226.36882 230.88074 236.86372 241.50122 244.77527 250.85692 254.62433 260.69702 263.88138 267.64877 270.4205 273.69455 277.60547 280.81671 284.00107 288.63858 292.37906 294.79199 298.70291 301.47464 303.77994 307.73569 313.55722 317.2977 321.20865 324.90427 329.68527 333.4527"
           y="397.15585"
           sodipodi:role="line"
           id="tspan402">Two-wayset-associativecache.</tspan></text>
</g></g></svg>